<?xml version="1.0" encoding="UTF-8"?>
<svg id="Layer_1" data-name="Layer 1" xmlns="http://www.w3.org/2000/svg" xmlns:xlink="http://www.w3.org/1999/xlink" viewBox="0 0 64 64">
  <defs>
    <style>
      .cls-1 {
        fill: none;
      }

      .cls-1, .cls-2, .cls-3, .cls-4, .cls-5 {
        stroke-width: 0px;
      }

      .cls-2 {
        fill: url(#radial-gradient);
      }

      .cls-6 {
        stroke: #fff;
        stroke-miterlimit: 10;
        stroke-width: 2px;
      }

      .cls-6, .cls-4 {
        fill: #fff;
      }

      .cls-7 {
        opacity: .2;
      }

      .cls-3 {
        fill: #1383c6;
      }

      .cls-5 {
        fill: #00b8c4;
      }
    </style>
    <radialGradient id="radial-gradient" cx="32" cy="32" fx="32" fy="32" r="22" gradientUnits="userSpaceOnUse">
      <stop offset="0" stop-color="#00b8c4"/>
      <stop offset="1" stop-color="#1383c6"/>
    </radialGradient>
  </defs>
  <rect class="cls-1" width="64" height="64"/>
  <g>
    <circle class="cls-2" cx="32" cy="32" r="22"/>
    <g>
      <line class="cls-6" x1="15.0008" y1="32" x2="21.0008" y2="32"/>
      <line class="cls-6" x1="42.9992" y1="32" x2="48.9992" y2="32"/>
      <g>
        <g>
          <rect class="cls-3" x="22.00072" y="15.00003" width="14.91309" height="34" rx="1.45459" ry="1.45459"/>
          <path class="cls-4" d="m35.45922,16c.24646,0,.45459.20815.45459.45454v31.09093c0,.24638-.20813.45454-.45459.45454h-12.00391c-.24646,0-.45459-.20815-.45459-.45454v-31.09093c0-.24638.20813-.45454.45459-.45454h12.00391m0-2h-12.00391c-1.34998,0-2.45459,1.10455-2.45459,2.45454v31.09093c0,1.34998,1.10461,2.45454,2.45459,2.45454h12.00391c1.3501,0,2.45459-1.10455,2.45459-2.45454v-31.09093c0-1.34998-1.10449-2.45454-2.45459-2.45454h0Z"/>
        </g>
        <g class="cls-7">
          <path class="cls-4" d="m32.56839,16.2729c.41212-.8001.01294-1.45472-.88706-1.45472h-8.22586c-.9,0-1.63636.73636-1.63636,1.63636v19.05094c0,.9.33719.98174.74931.18164l9.99998-19.41422Z"/>
        </g>
        <g>
          <rect class="cls-5" x="36.91234" y="15.00003" width="5.08691" height="34" rx="1.45459" ry="1.45459"/>
          <path class="cls-4" d="m40.54467,16c.24646,0,.45459.20815.45459.45454v31.09093c0,.24638-.20813.45454-.45459.45454h-2.17786c-.24646,0-.45459-.20815-.45459-.45454v-31.09093c0-.24638.20813-.45454.45459-.45454h2.17786m0-2h-2.17786c-1.3501,0-2.45459,1.10455-2.45459,2.45454v31.09093c0,1.34998,1.10449,2.45454,2.45459,2.45454h2.17786c1.34998,0,2.45459-1.10455,2.45459-2.45454v-31.09093c0-1.34998-1.10461-2.45454-2.45459-2.45454h0Z"/>
        </g>
        <g class="cls-7">
          <path class="cls-4" d="m41.43157,16.88839c.41212-.8001.74931-1.59321.74931-1.76247s-.73636-.30774-1.63636-.30774h-2.17769c-.9,0-1.63636.73636-1.63636,1.63636v7.92434c0,.9.33719.98174.74931.18164l3.9518-7.67213Z"/>
        </g>
      </g>
    </g>
  </g>
</svg>